<svg width="21" height="21" viewBox="0 0 21 21" fill="none" xmlns="http://www.w3.org/2000/svg">
<g id="bxs:up-arrow">
<path id="Vector" d="M16.4777 3.33186L16.4777 18.3319C16.4772 18.4837 16.4353 18.6326 16.3566 18.7624C16.2778 18.8923 16.1651 18.9981 16.0306 19.0687C15.8961 19.1392 15.7449 19.1718 15.5933 19.1628C15.4417 19.1538 15.2954 19.1036 15.1702 19.0177L4.33688 11.5177C3.88771 11.2069 3.88771 10.4585 4.33688 10.1469L15.1702 2.64686C15.2952 2.56005 15.4415 2.50914 15.5934 2.49966C15.7452 2.49019 15.8968 2.52251 16.0315 2.59312C16.1663 2.66373 16.2792 2.76992 16.3578 2.90016C16.4365 3.0304 16.4779 3.17971 16.4777 3.33186Z" fill="black"/>
</g>
</svg>
