<svg width="21" height="21" viewBox="0 0 21 21" fill="none" xmlns="http://www.w3.org/2000/svg">
<g id="bxs:up-arrow">
<path id="Vector" d="M4.66682 2.99983L4.66682 17.9998C4.6673 18.1517 4.70918 18.3006 4.78797 18.4304C4.86676 18.5602 4.97946 18.6661 5.11395 18.7367C5.24844 18.8072 5.39962 18.8397 5.55122 18.8307C5.70283 18.8218 5.84911 18.7716 5.97432 18.6857L16.8077 11.1857C17.2568 10.8748 17.2568 10.1265 16.8077 9.81483L5.97432 2.31483C5.84937 2.22801 5.70302 2.17711 5.55116 2.16763C5.39931 2.15816 5.24776 2.19048 5.11298 2.26109C4.97821 2.3317 4.86536 2.43789 4.7867 2.56813C4.70804 2.69837 4.66658 2.84768 4.66682 2.99983Z" fill="black"/>
</g>
</svg>
