<svg width="35" height="36" viewBox="0 0 35 36" fill="none" xmlns="http://www.w3.org/2000/svg">
<g id="Star 2">
<path id="Star 1" d="M16.2753 4.60585C16.6487 3.45674 18.2744 3.45674 18.6477 4.60585L21.1019 12.1589C21.2688 12.6728 21.7477 13.0207 22.2881 13.0207H30.2298C31.438 13.0207 31.9404 14.5668 30.9629 15.277L24.5379 19.945C24.1008 20.2626 23.9179 20.8256 24.0848 21.3395L26.539 28.8925C26.9123 30.0416 25.5971 30.9972 24.6196 30.287L18.1947 25.619C17.7575 25.3014 17.1656 25.3014 16.7284 25.619L10.3034 30.287C9.32595 30.9972 8.01074 30.0416 8.38411 28.8925L10.8382 21.3395C11.0052 20.8256 10.8223 20.2626 10.3851 19.945L3.96016 15.277C2.98267 14.5668 3.48503 13.0207 4.69328 13.0207H12.635C13.1753 13.0207 13.6542 12.6728 13.8212 12.1589L16.2753 4.60585Z" fill="white"/>
</g>
</svg>
